<svg xmlns="http://www.w3.org/2000/svg" xmlns:xlink="http://www.w3.org/1999/xlink" width="500" zoomAndPan="magnify" viewBox="0 0 375 374.999991" height="500" preserveAspectRatio="xMidYMid meet" version="1.2"><defs><clipPath id="b2378f1241"><path d="M 75.523438 71.527344 L 299.773438 71.527344 L 299.773438 165 L 75.523438 165 Z M 75.523438 71.527344 "/></clipPath><clipPath id="06e608e5c0"><path d="M 90.621094 221.558594 L 125 221.558594 L 125 243 L 90.621094 243 Z M 90.621094 221.558594 "/></clipPath><clipPath id="80fba0d967"><path d="M 90.621094 233 L 284.121094 233 L 284.121094 304.058594 L 90.621094 304.058594 Z M 90.621094 233 "/></clipPath><clipPath id="f6900d306c"><path d="M 250 221.558594 L 284 221.558594 L 284 243 L 250 243 Z M 250 221.558594 "/></clipPath><clipPath id="2e55de8002"><path d="M 182.085938 124.863281 L 192.585938 124.863281 L 192.585938 135 L 182.085938 135 Z M 182.085938 124.863281 "/></clipPath><clipPath id="3d4b81e152"><path d="M 111.726562 195.320312 L 122.226562 195.320312 L 122.226562 205.820312 L 111.726562 205.820312 Z M 111.726562 195.320312 "/></clipPath><clipPath id="2319218815"><path d="M 87.191406 195.320312 L 97.691406 195.320312 L 97.691406 205.820312 L 87.191406 205.820312 Z M 87.191406 195.320312 "/></clipPath><clipPath id="f16f059388"><path d="M 277.972656 195.320312 L 288.472656 195.320312 L 288.472656 205.820312 L 277.972656 205.820312 Z M 277.972656 195.320312 "/></clipPath><clipPath id="381ddc9931"><path d="M 253.441406 195.320312 L 263.941406 195.320312 L 263.941406 205.820312 L 253.441406 205.820312 Z M 253.441406 195.320312 "/></clipPath><clipPath id="14ae64d2e3"><path d="M 128.460938 157.066406 L 240 157.066406 L 240 248.566406 L 128.460938 248.566406 Z M 128.460938 157.066406 "/></clipPath></defs><g id="e04a3d1fc0"><rect x="0" width="375" y="0" height="374.999991" style="fill:#ffffff;fill-opacity:1;stroke:none;"/><rect x="0" width="375" y="0" height="374.999991" style="fill:#f2f2f2;fill-opacity:1;stroke:none;"/><path style=" stroke:none;fill-rule:evenodd;fill:#9d9d9c;fill-opacity:1;" d="M 293.113281 158.582031 L 265.394531 166.984375 C 263.144531 167.644531 260.882812 166.71875 260.246094 164.949219 C 259.777344 163.597656 259.246094 162.269531 258.703125 160.953125 C 258.320312 160.078125 257.148438 159.75 256.074219 160.234375 L 254.128906 161.097656 C 253.066406 161.574219 252.46875 162.621094 252.8125 163.410156 C 254.613281 167.710938 255.984375 172.183594 256.902344 176.753906 C 256.996094 177.277344 257.402344 177.667969 258.042969 177.867188 C 258.679688 178.066406 259.375 178.015625 260 177.710938 C 265.039062 175.242188 269.972656 172.441406 274.769531 169.320312 C 275.210938 169.03125 275.691406 168.910156 276.214844 168.964844 C 281.910156 169.570312 287.632812 170.519531 293.355469 171.824219 C 294.0625 171.984375 294.734375 171.773438 295.226562 171.207031 C 295.71875 170.640625 295.90625 169.871094 295.75 169.050781 C 295.042969 165.519531 294.164062 162.023438 293.109375 158.582031 Z M 293.113281 158.582031 "/><g clip-rule="nonzero" clip-path="url(#b2378f1241)"><path style=" stroke:none;fill-rule:evenodd;fill:#4d4d4d;fill-opacity:1;" d="M 299.585938 150.425781 C 291.46875 127.464844 276.078125 107.269531 256.1875 93.277344 C 246.257812 86.269531 235.226562 80.773438 223.597656 77.101562 C 211.976562 73.410156 199.769531 71.570312 187.648438 71.566406 C 175.523438 71.570312 163.320312 73.410156 151.695312 77.101562 C 140.070312 80.773438 129.035156 86.269531 119.105469 93.277344 C 99.21875 107.269531 83.824219 127.464844 75.707031 150.425781 C 75.207031 151.808594 75.757812 153.246094 76.863281 153.605469 L 110.453125 164.621094 C 111.570312 164.984375 112.710938 164.519531 113.046875 163.609375 C 118.425781 148.371094 128.714844 134.851562 141.992188 125.511719 C 155.246094 116.117188 171.355469 111.027344 187.648438 111.0625 C 203.9375 111.027344 220.050781 116.121094 233.304688 125.511719 C 246.578125 134.851562 256.867188 148.371094 262.25 163.613281 C 262.582031 164.519531 263.726562 164.984375 264.839844 164.625 L 298.429688 153.605469 C 299.535156 153.246094 300.089844 151.808594 299.585938 150.425781 Z M 299.585938 150.425781 "/></g><path style=" stroke:none;fill-rule:evenodd;fill:#9d9d9c;fill-opacity:1;" d="M 121.171875 161.101562 L 119.21875 160.234375 C 118.148438 159.753906 116.972656 160.078125 116.589844 160.953125 C 116.050781 162.269531 115.519531 163.601562 115.050781 164.949219 C 114.410156 166.71875 112.148438 167.648438 109.902344 166.984375 L 82.179688 158.582031 C 81.132812 162.023438 80.25 165.519531 79.542969 169.050781 C 79.386719 169.871094 79.574219 170.636719 80.066406 171.203125 C 80.558594 171.773438 81.226562 171.984375 81.9375 171.824219 C 87.65625 170.519531 93.382812 169.570312 99.082031 168.964844 C 99.609375 168.910156 100.082031 169.03125 100.523438 169.320312 C 105.320312 172.441406 110.257812 175.242188 115.292969 177.710938 C 115.917969 178.015625 116.613281 178.066406 117.253906 177.867188 C 117.894531 177.667969 118.296875 177.277344 118.390625 176.753906 C 119.3125 172.183594 120.679688 167.710938 122.480469 163.410156 C 122.828125 162.621094 122.230469 161.578125 121.167969 161.101562 Z M 121.171875 161.101562 "/><path style="fill:none;stroke-width:2;stroke-linecap:round;stroke-linejoin:miter;stroke:#9d9d9c;stroke-opacity:1;stroke-miterlimit:4;" d="M 1.002225 0.999527 L 74.083484 0.999527 " transform="matrix(0.74922,0,0,0.74922,78.749114,185.606604)"/><path style="fill:none;stroke-width:2;stroke-linecap:round;stroke-linejoin:miter;stroke:#9d9d9c;stroke-opacity:1;stroke-miterlimit:4;" d="M 0.998168 0.999527 L 74.079428 0.999527 " transform="matrix(0.74922,0,0,0.74922,239.939653,185.606604)"/><path style="fill:none;stroke-width:2;stroke-linecap:round;stroke-linejoin:miter;stroke:#9d9d9c;stroke-opacity:1;stroke-miterlimit:4;" d="M 1.002225 0.999528 L 74.083484 0.999528 " transform="matrix(0.74922,0,0,0.74922,78.749114,214.012853)"/><path style="fill:none;stroke-width:2;stroke-linecap:round;stroke-linejoin:miter;stroke:#9d9d9c;stroke-opacity:1;stroke-miterlimit:4;" d="M 0.998168 0.999528 L 74.079428 0.999528 " transform="matrix(0.74922,0,0,0.74922,239.939653,214.012853)"/><g clip-rule="nonzero" clip-path="url(#06e608e5c0)"><path style=" stroke:none;fill-rule:evenodd;fill:#9d9d9c;fill-opacity:1;" d="M 94.648438 242.140625 L 113.890625 231.359375 C 115.457031 230.496094 117.324219 230.878906 118.105469 232.1875 C 118.707031 233.171875 119.3125 234.152344 119.953125 235.113281 C 120.375 235.753906 121.328125 235.855469 122.058594 235.347656 L 123.398438 234.421875 C 124.128906 233.914062 124.390625 233.015625 124 232.414062 C 121.871094 229.191406 119.984375 225.8125 118.371094 222.308594 C 118.1875 221.90625 117.808594 221.660156 117.296875 221.613281 C 116.78125 221.566406 116.273438 221.726562 115.871094 222.082031 C 112.640625 224.914062 109.503906 227.925781 106.503906 231.09375 C 106.21875 231.390625 105.890625 231.554688 105.492188 231.601562 C 101.15625 232.128906 96.769531 232.445312 92.324219 232.574219 C 91.769531 232.589844 91.316406 232.867188 91.054688 233.367188 C 90.785156 233.871094 90.78125 234.460938 91.035156 235.019531 C 92.144531 237.441406 93.355469 239.8125 94.648438 242.140625 Z M 94.648438 242.140625 "/></g><g clip-rule="nonzero" clip-path="url(#80fba0d967)"><path style=" stroke:none;fill-rule:evenodd;fill:#4d4d4d;fill-opacity:1;" d="M 283.394531 246.8125 L 260.140625 233.246094 C 259.367188 232.804688 258.414062 232.988281 258.019531 233.660156 C 250.722656 245.824219 240.242188 256.066406 227.933594 263.058594 C 215.632812 270.074219 201.550781 273.773438 187.371094 273.753906 C 173.191406 273.773438 159.113281 270.074219 146.8125 263.058594 C 134.503906 256.070312 124.019531 245.824219 116.722656 233.660156 C 116.328125 232.988281 115.378906 232.804688 114.601562 233.246094 L 91.347656 246.8125 C 90.582031 247.257812 90.386719 248.378906 90.933594 249.296875 C 100.902344 265.90625 115.15625 279.839844 131.96875 289.390625 C 148.753906 298.984375 168.125 304.054688 187.371094 304.015625 C 206.621094 304.054688 225.992188 298.984375 242.777344 289.390625 C 259.585938 279.839844 273.84375 265.90625 283.8125 249.296875 C 284.355469 248.378906 284.164062 247.257812 283.394531 246.8125 Z M 283.394531 246.8125 "/></g><g clip-rule="nonzero" clip-path="url(#f6900d306c)"><path style=" stroke:none;fill-rule:evenodd;fill:#9d9d9c;fill-opacity:1;" d="M 251.34375 234.421875 L 252.679688 235.347656 C 253.410156 235.855469 254.371094 235.753906 254.789062 235.113281 C 255.429688 234.152344 256.039062 233.171875 256.636719 232.1875 C 257.417969 230.878906 259.289062 230.496094 260.851562 231.359375 L 280.09375 242.140625 C 281.382812 239.816406 282.589844 237.441406 283.707031 235.023438 C 283.960938 234.460938 283.957031 233.875 283.691406 233.367188 C 283.425781 232.867188 282.972656 232.589844 282.417969 232.574219 C 277.972656 232.445312 273.589844 232.128906 269.25 231.605469 C 268.851562 231.554688 268.523438 231.390625 268.242188 231.097656 C 265.234375 227.925781 262.097656 224.914062 258.871094 222.082031 C 258.464844 221.730469 257.957031 221.566406 257.449219 221.613281 C 256.929688 221.664062 256.554688 221.90625 256.375 222.308594 C 254.757812 225.8125 252.871094 229.191406 250.742188 232.417969 C 250.351562 233.015625 250.613281 233.914062 251.34375 234.421875 Z M 251.34375 234.421875 "/></g><g style="fill:#f2f2f2;fill-opacity:1;"><g transform="translate(105.297531, 148.244732)"><path style="stroke:none" d="M -0.546875 -19.75 L -0.609375 -19.703125 L 6.609375 -9.515625 L 5.390625 -7.765625 L -6.609375 -10.96875 L -6.640625 -10.921875 L -0.75 -7.171875 L 1.296875 -5.765625 L 2.53125 -6.984375 L 4.09375 -5.890625 L 0.34375 -0.5 L -1.21875 -1.59375 L -0.515625 -3.171875 L -9.859375 -9.65625 L -11.109375 -8.453125 L -12.6875 -9.546875 L -11.71875 -10.9375 L -9.359375 -14.328125 L 2.5625 -10.984375 L 2.59375 -11.03125 L -4.6875 -21.0625 L -1.34375 -25.875 L 0.234375 -24.78125 L -0.453125 -23.1875 L 8.890625 -16.703125 L 10.125 -17.921875 L 11.6875 -16.828125 L 7.9375 -11.421875 L 6.375 -12.515625 L 7.0625 -14.09375 L 5.015625 -15.5 Z M -0.546875 -19.75 "/></g></g><g style="fill:#f2f2f2;fill-opacity:1;"><g transform="translate(120.756638, 127.60616)"><path style="stroke:none" d="M 6.28125 -15.796875 C 7.8125 -14.035156 8.570312 -12.144531 8.5625 -10.125 C 8.550781 -8.113281 7.738281 -6.40625 6.125 -5 C 4.507812 -3.601562 2.707031 -3.046875 0.71875 -3.328125 C -1.269531 -3.609375 -3.03125 -4.628906 -4.5625 -6.390625 L -4.703125 -6.5625 C -6.210938 -8.300781 -6.972656 -10.175781 -6.984375 -12.1875 C -6.992188 -14.195312 -6.191406 -15.898438 -4.578125 -17.296875 C -2.953125 -18.710938 -1.140625 -19.28125 0.859375 -19 C 2.867188 -18.71875 4.628906 -17.707031 6.140625 -15.96875 Z M 3.734375 -13.90625 C 2.648438 -15.144531 1.515625 -15.925781 0.328125 -16.25 C -0.847656 -16.582031 -1.941406 -16.304688 -2.953125 -15.421875 C -3.960938 -14.546875 -4.378906 -13.507812 -4.203125 -12.3125 C -4.035156 -11.125 -3.410156 -9.90625 -2.328125 -8.65625 L -2.171875 -8.46875 C -1.066406 -7.195312 0.0664062 -6.394531 1.234375 -6.0625 C 2.410156 -5.738281 3.5 -6.007812 4.5 -6.875 C 5.507812 -7.75 5.9375 -8.789062 5.78125 -10 C 5.625 -11.207031 4.992188 -12.445312 3.890625 -13.71875 Z M 3.734375 -13.90625 "/></g></g><g style="fill:#f2f2f2;fill-opacity:1;"><g transform="translate(136.862848, 114.433847)"><path style="stroke:none" d="M 5.28125 -20.859375 L 7.296875 -17.140625 L 5.15625 -15.984375 L 4.203125 -17.484375 L 1.625 -16.109375 L 6.921875 -6.28125 L 8.578125 -6.78125 L 9.484375 -5.109375 L 3.703125 -2 L 2.796875 -3.671875 L 4.140625 -4.765625 L -1.15625 -14.59375 L -3.71875 -13.21875 L -3 -11.59375 L -5.125 -10.4375 L -7.140625 -14.15625 Z M 5.28125 -20.859375 "/></g></g><g style="fill:#f2f2f2;fill-opacity:1;"><g transform="translate(154.74076, 105.376113)"><path style="stroke:none" d="M 12.40625 -11.609375 C 13.039062 -9.378906 12.921875 -7.351562 12.046875 -5.53125 C 11.179688 -3.707031 9.71875 -2.503906 7.65625 -1.921875 C 5.601562 -1.335938 3.734375 -1.597656 2.046875 -2.703125 C 0.367188 -3.816406 -0.785156 -5.488281 -1.421875 -7.71875 L -1.484375 -7.953125 C -2.109375 -10.160156 -1.992188 -12.175781 -1.140625 -14 C -0.285156 -15.820312 1.164062 -17.023438 3.21875 -17.609375 C 5.289062 -18.191406 7.171875 -17.925781 8.859375 -16.8125 C 10.554688 -15.707031 11.71875 -14.050781 12.34375 -11.84375 Z M 9.296875 -11 C 8.847656 -12.582031 8.15625 -13.769531 7.21875 -14.5625 C 6.289062 -15.363281 5.179688 -15.582031 3.890625 -15.21875 C 2.609375 -14.851562 1.789062 -14.09375 1.4375 -12.9375 C 1.082031 -11.789062 1.128906 -10.421875 1.578125 -8.828125 L 1.640625 -8.578125 C 2.097656 -6.960938 2.785156 -5.757812 3.703125 -4.96875 C 4.617188 -4.175781 5.710938 -3.957031 6.984375 -4.3125 C 8.273438 -4.675781 9.109375 -5.4375 9.484375 -6.59375 C 9.859375 -7.75 9.816406 -9.132812 9.359375 -10.75 Z M 9.296875 -11 "/></g></g><g style="fill:#f2f2f2;fill-opacity:1;"><g transform="translate(174.906387, 100.297056)"><path style="stroke:none" d="M 6.875 -16.25 C 8.675781 -16.351562 10.109375 -16.015625 11.171875 -15.234375 C 12.234375 -14.460938 12.804688 -13.351562 12.890625 -11.90625 C 12.929688 -11.101562 12.753906 -10.394531 12.359375 -9.78125 C 11.960938 -9.175781 11.359375 -8.671875 10.546875 -8.265625 C 11.492188 -8.035156 12.191406 -7.613281 12.640625 -7 C 13.085938 -6.382812 13.335938 -5.601562 13.390625 -4.65625 L 13.421875 -3.84375 C 13.441406 -3.5 13.523438 -3.234375 13.671875 -3.046875 C 13.816406 -2.867188 14.050781 -2.765625 14.375 -2.734375 L 14.765625 -2.71875 L 14.875 -0.796875 L 13.234375 -0.703125 C 12.191406 -0.648438 11.445312 -0.890625 11 -1.421875 C 10.550781 -1.960938 10.304688 -2.675781 10.265625 -3.5625 L 10.21875 -4.46875 C 10.175781 -5.238281 9.9375 -5.828125 9.5 -6.234375 C 9.0625 -6.640625 8.46875 -6.835938 7.71875 -6.828125 L 5.109375 -6.6875 L 5.328125 -2.53125 L 7.0625 -2.28125 L 7.15625 -0.375 L 0.609375 -0.03125 L 0.515625 -1.9375 L 2.171875 -2.359375 L 1.578125 -13.71875 L -0.140625 -13.953125 L -0.234375 -15.875 L 1.453125 -15.96875 Z M 4.984375 -9.140625 L 7.1875 -9.25 C 8.070312 -9.300781 8.722656 -9.523438 9.140625 -9.921875 C 9.566406 -10.328125 9.757812 -10.882812 9.71875 -11.59375 C 9.6875 -12.300781 9.4375 -12.859375 8.96875 -13.265625 C 8.507812 -13.671875 7.851562 -13.847656 7 -13.796875 L 4.734375 -13.6875 Z M 4.984375 -9.140625 "/></g></g><g style="fill:#f2f2f2;fill-opacity:1;"><g transform="translate(195.31036, 99.803194)"><path style="stroke:none" d="M 15.109375 -8.171875 L 12.78125 -8.546875 L 12.796875 -10.703125 C 12.535156 -11.054688 12.179688 -11.359375 11.734375 -11.609375 C 11.296875 -11.867188 10.757812 -12.050781 10.125 -12.15625 C 8.769531 -12.375 7.644531 -12.046875 6.75 -11.171875 C 5.851562 -10.304688 5.273438 -9.078125 5.015625 -7.484375 L 4.9375 -6.953125 C 4.675781 -5.359375 4.828125 -4.003906 5.390625 -2.890625 C 5.960938 -1.773438 6.910156 -1.109375 8.234375 -0.890625 C 8.859375 -0.785156 9.4375 -0.78125 9.96875 -0.875 C 10.507812 -0.976562 10.945312 -1.160156 11.28125 -1.421875 L 11.953125 -3.453125 L 14.28125 -3.078125 L 13.78125 0.015625 C 13.019531 0.640625 12.117188 1.09375 11.078125 1.375 C 10.035156 1.65625 8.90625 1.695312 7.6875 1.5 C 5.59375 1.15625 3.992188 0.144531 2.890625 -1.53125 C 1.785156 -3.207031 1.421875 -5.1875 1.796875 -7.46875 L 1.875 -7.984375 C 2.25 -10.253906 3.21875 -12.015625 4.78125 -13.265625 C 6.351562 -14.515625 8.195312 -14.960938 10.3125 -14.609375 C 11.53125 -14.410156 12.585938 -14.007812 13.484375 -13.40625 C 14.378906 -12.8125 15.09375 -12.101562 15.625 -11.28125 Z M 15.109375 -8.171875 "/></g></g><g style="fill:#f2f2f2;fill-opacity:1;"><g transform="translate(214.507408, 103.445814)"><path style="stroke:none" d="M 11.0625 -10.625 L 9.78125 -10.921875 L 10.171875 -5.171875 L 10.234375 -5.15625 L 14.421875 -9.09375 L 13.3125 -9.734375 L 14.015625 -11.515625 L 19.59375 -9.3125 L 18.890625 -7.53125 L 17.546875 -7.828125 L 10.546875 -1.828125 L 9.328125 1.28125 L 10.78125 2.21875 L 10.078125 3.984375 L 3.96875 1.5625 L 4.671875 -0.203125 L 6.375 0.109375 L 7.65625 -3.140625 L 6.640625 -12.125 L 5.484375 -12.828125 L 6.1875 -14.609375 L 11.765625 -12.40625 Z M 11.0625 -10.625 "/></g></g><g style="fill:#f2f2f2;fill-opacity:1;"><g transform="translate(233.170965, 111.445379)"><path style="stroke:none" d="M 17.140625 -1.15625 L 15.171875 -2.46875 L 16.09375 -4.40625 C 16.007812 -4.84375 15.816406 -5.265625 15.515625 -5.671875 C 15.210938 -6.085938 14.796875 -6.472656 14.265625 -6.828125 C 13.117188 -7.597656 11.957031 -7.773438 10.78125 -7.359375 C 9.613281 -6.941406 8.578125 -6.0625 7.671875 -4.71875 L 7.375 -4.265625 C 6.476562 -2.921875 6.054688 -1.625 6.109375 -0.375 C 6.160156 0.875 6.742188 1.867188 7.859375 2.609375 C 8.378906 2.960938 8.90625 3.207031 9.4375 3.34375 C 9.96875 3.488281 10.441406 3.507812 10.859375 3.40625 L 12.296875 1.828125 L 14.265625 3.140625 L 12.53125 5.734375 C 11.582031 5.992188 10.570312 6.03125 9.5 5.84375 C 8.4375 5.664062 7.394531 5.234375 6.375 4.546875 C 4.613281 3.359375 3.578125 1.773438 3.265625 -0.203125 C 2.953125 -2.179688 3.441406 -4.128906 4.734375 -6.046875 L 5.03125 -6.484375 C 6.3125 -8.398438 7.921875 -9.597656 9.859375 -10.078125 C 11.804688 -10.554688 13.671875 -10.195312 15.453125 -9 C 16.472656 -8.3125 17.265625 -7.503906 17.828125 -6.578125 C 18.398438 -5.660156 18.753906 -4.722656 18.890625 -3.765625 Z M 17.140625 -1.15625 "/></g></g><g style="fill:#f2f2f2;fill-opacity:1;"><g transform="translate(249.125619, 122.858473)"><path style="stroke:none" d="M 0.421875 0.4375 L 1.78125 -0.890625 L 3.203125 0.078125 L 11.3125 -7.890625 L 10.359375 -9.328125 L 11.734375 -10.671875 L 12.921875 -9.46875 L 15.140625 -7.203125 L 16.34375 -6 L 14.96875 -4.65625 L 13.53125 -5.625 L 5.5625 2.203125 L 8.703125 5.390625 L 10.25 4.109375 L 11.953125 5.828125 L 8.78125 8.9375 Z M 0.421875 0.4375 "/></g></g><g style="fill:#f2f2f2;fill-opacity:1;"><g transform="translate(261.578849, 136.202647)"><path style="stroke:none" d="M 11.75 5.328125 L 8.828125 0.8125 L 5.015625 3.265625 L 7.796875 7.5625 L 9.46875 6.671875 L 10.78125 8.703125 L 7.140625 11.046875 L 0.328125 0.515625 L 1.921875 -0.515625 L 3.125 0.703125 L 12.6875 -5.46875 L 12.03125 -7.046875 L 13.640625 -8.09375 L 14.5625 -6.6875 L 20.4375 2.40625 L 16.78125 4.765625 L 15.453125 2.71875 L 16.984375 1.578125 L 14.234375 -2.6875 L 10.875 -0.515625 L 13.796875 4 Z M 11.75 5.328125 "/></g></g><g clip-rule="nonzero" clip-path="url(#2e55de8002)"><path style=" stroke:none;fill-rule:evenodd;fill:#9d9d9c;fill-opacity:1;" d="M 192.574219 128.738281 C 192.546875 128.648438 192.460938 128.589844 192.367188 128.589844 L 188.675781 128.59375 L 187.542969 125.085938 C 187.515625 124.996094 187.429688 124.933594 187.335938 124.933594 C 187.242188 124.933594 187.15625 124.996094 187.128906 125.085938 L 185.992188 128.59375 L 182.304688 128.589844 C 182.207031 128.589844 182.125 128.648438 182.097656 128.738281 C 182.066406 128.828125 182.097656 128.929688 182.175781 128.984375 L 185.164062 131.148438 L 184.015625 134.652344 C 183.988281 134.742188 184.019531 134.84375 184.097656 134.898438 C 184.171875 134.953125 184.277344 134.953125 184.355469 134.898438 L 187.335938 132.722656 L 190.316406 134.898438 C 190.355469 134.925781 190.398438 134.941406 190.445312 134.941406 C 190.488281 134.941406 190.535156 134.925781 190.574219 134.898438 C 190.648438 134.84375 190.683594 134.746094 190.652344 134.65625 L 189.503906 131.148438 L 192.496094 128.984375 C 192.570312 128.929688 192.601562 128.828125 192.574219 128.738281 Z M 192.574219 128.738281 "/></g><g clip-rule="nonzero" clip-path="url(#3d4b81e152)"><path style=" stroke:none;fill-rule:evenodd;fill:#9d9d9c;fill-opacity:1;" d="M 122.214844 199.199219 C 122.1875 199.109375 122.101562 199.046875 122.007812 199.046875 L 118.316406 199.054688 L 117.183594 195.542969 C 117.15625 195.453125 117.070312 195.390625 116.976562 195.390625 C 116.878906 195.390625 116.796875 195.453125 116.769531 195.542969 L 115.632812 199.054688 L 111.945312 199.046875 L 111.941406 199.046875 C 111.847656 199.046875 111.765625 199.109375 111.734375 199.199219 C 111.707031 199.289062 111.738281 199.386719 111.816406 199.441406 L 114.804688 201.605469 L 113.65625 205.113281 C 113.628906 205.203125 113.660156 205.300781 113.738281 205.359375 C 113.8125 205.414062 113.917969 205.414062 113.996094 205.359375 L 116.976562 203.183594 L 119.957031 205.359375 C 119.996094 205.386719 120.039062 205.398438 120.085938 205.398438 C 120.128906 205.398438 120.175781 205.386719 120.214844 205.359375 C 120.289062 205.300781 120.320312 205.203125 120.292969 205.113281 L 119.144531 201.605469 L 122.132812 199.445312 C 122.210938 199.386719 122.242188 199.289062 122.214844 199.199219 Z M 122.214844 199.199219 "/></g><g clip-rule="nonzero" clip-path="url(#2319218815)"><path style=" stroke:none;fill-rule:evenodd;fill:#9d9d9c;fill-opacity:1;" d="M 97.683594 199.199219 C 97.652344 199.109375 97.570312 199.046875 97.472656 199.046875 L 93.785156 199.054688 L 92.652344 195.542969 C 92.621094 195.453125 92.539062 195.390625 92.441406 195.390625 C 92.347656 195.390625 92.261719 195.453125 92.234375 195.542969 L 91.101562 199.054688 L 87.410156 199.046875 C 87.316406 199.046875 87.230469 199.109375 87.203125 199.199219 C 87.171875 199.289062 87.207031 199.386719 87.28125 199.441406 L 90.273438 201.605469 L 89.125 205.113281 C 89.09375 205.203125 89.128906 205.300781 89.203125 205.359375 C 89.28125 205.414062 89.386719 205.414062 89.460938 205.359375 L 92.441406 203.183594 L 95.421875 205.359375 C 95.460938 205.386719 95.507812 205.398438 95.550781 205.398438 C 95.597656 205.398438 95.644531 205.386719 95.679688 205.359375 C 95.757812 205.300781 95.789062 205.203125 95.757812 205.113281 L 94.613281 201.605469 L 97.601562 199.445312 C 97.679688 199.386719 97.710938 199.289062 97.679688 199.199219 Z M 97.683594 199.199219 "/></g><g clip-rule="nonzero" clip-path="url(#f16f059388)"><path style=" stroke:none;fill-rule:evenodd;fill:#9d9d9c;fill-opacity:1;" d="M 288.460938 199.199219 C 288.433594 199.109375 288.347656 199.046875 288.253906 199.046875 L 284.5625 199.054688 L 283.429688 195.542969 C 283.402344 195.453125 283.316406 195.390625 283.222656 195.390625 C 283.128906 195.390625 283.042969 195.453125 283.015625 195.542969 L 281.878906 199.054688 L 278.191406 199.046875 C 278.097656 199.046875 278.011719 199.109375 277.984375 199.199219 C 277.953125 199.289062 277.984375 199.386719 278.0625 199.441406 L 281.050781 201.605469 L 279.902344 205.113281 C 279.875 205.203125 279.90625 205.300781 279.984375 205.359375 C 280.058594 205.414062 280.164062 205.414062 280.242188 205.359375 L 283.222656 203.183594 L 286.203125 205.359375 C 286.242188 205.386719 286.285156 205.398438 286.332031 205.398438 C 286.375 205.398438 286.421875 205.386719 286.460938 205.359375 C 286.535156 205.300781 286.570312 205.203125 286.539062 205.113281 L 285.390625 201.605469 L 288.382812 199.445312 C 288.457031 199.386719 288.488281 199.289062 288.460938 199.199219 Z M 288.460938 199.199219 "/></g><g clip-rule="nonzero" clip-path="url(#381ddc9931)"><path style=" stroke:none;fill-rule:evenodd;fill:#9d9d9c;fill-opacity:1;" d="M 263.929688 199.199219 C 263.898438 199.109375 263.816406 199.046875 263.722656 199.046875 L 260.03125 199.054688 L 258.898438 195.542969 C 258.867188 195.453125 258.785156 195.390625 258.691406 195.390625 C 258.59375 195.390625 258.511719 195.453125 258.480469 195.542969 L 257.347656 199.054688 L 253.660156 199.046875 L 253.65625 199.046875 C 253.5625 199.046875 253.480469 199.109375 253.449219 199.199219 C 253.421875 199.289062 253.453125 199.386719 253.53125 199.441406 L 256.519531 201.605469 L 255.371094 205.113281 C 255.34375 205.203125 255.375 205.300781 255.453125 205.359375 C 255.527344 205.414062 255.632812 205.414062 255.707031 205.359375 L 258.6875 203.183594 L 261.671875 205.359375 C 261.707031 205.386719 261.753906 205.398438 261.800781 205.398438 C 261.84375 205.398438 261.890625 205.386719 261.925781 205.359375 C 262.003906 205.300781 262.035156 205.203125 262.007812 205.113281 L 260.859375 201.605469 L 263.847656 199.445312 C 263.925781 199.386719 263.957031 199.289062 263.929688 199.199219 Z M 263.929688 199.199219 "/></g><g style="fill:#f2f2f2;fill-opacity:1;"><g transform="translate(124.952898, 271.651142)"><path style="stroke:none" d="M 0.953125 -0.84375 L 1.609375 -0.53125 L 9.265625 -6.140625 L 11.015625 -4.9375 L 8.5 4.203125 L 9.046875 4.71875 L 8.34375 5.734375 L 5.453125 3.75 L 6.15625 2.734375 L 6.8125 3.03125 L 7.25 1.59375 L 4.5 -0.28125 L 3.3125 0.625 L 3.828125 1.140625 L 3.125 2.15625 L 0.25 0.171875 Z M 5.765625 -1.265625 L 7.703125 0.078125 L 8.8125 -3.578125 L 8.78125 -3.609375 Z M 5.765625 -1.265625 "/></g></g><g style="fill:#f2f2f2;fill-opacity:1;"><g transform="translate(137.714526, 279.955024)"><path style="stroke:none" d="M 8.328125 -0.9375 L 5.203125 -2.484375 L 3.890625 0.15625 L 6.875 1.640625 L 7.515625 0.578125 L 8.90625 1.28125 L 7.65625 3.796875 L 0.34375 0.171875 L 0.890625 -0.9375 L 1.984375 -0.625 L 5.265625 -7.25 L 4.375 -7.953125 L 4.921875 -9.0625 L 5.921875 -8.5625 L 12.21875 -5.453125 L 10.96875 -2.921875 L 9.5625 -3.609375 L 10.015625 -4.765625 L 7.0625 -6.234375 L 5.90625 -3.90625 L 9.03125 -2.359375 Z M 8.328125 -0.9375 "/></g></g><g style="fill:#f2f2f2;fill-opacity:1;"><g transform="translate(150.431806, 285.882623)"><path style="stroke:none" d="M 10.046875 -4 L 8.5625 -4.5 L 8.765625 -5.9375 C 8.640625 -6.101562 8.425781 -6.28125 8.125 -6.46875 C 7.832031 -6.65625 7.503906 -6.8125 7.140625 -6.9375 C 6.597656 -7.125 6.140625 -7.148438 5.765625 -7.015625 C 5.398438 -6.890625 5.160156 -6.648438 5.046875 -6.296875 C 4.929688 -5.960938 4.988281 -5.632812 5.21875 -5.3125 C 5.445312 -5 5.894531 -4.597656 6.5625 -4.109375 C 7.550781 -3.441406 8.238281 -2.769531 8.625 -2.09375 C 9.007812 -1.414062 9.066406 -0.675781 8.796875 0.125 C 8.515625 0.96875 7.960938 1.515625 7.140625 1.765625 C 6.316406 2.023438 5.363281 1.972656 4.28125 1.609375 C 3.507812 1.347656 2.847656 0.988281 2.296875 0.53125 C 1.753906 0.0703125 1.351562 -0.445312 1.09375 -1.03125 L 1.78125 -3.0625 L 3.296875 -2.546875 L 3.03125 -1.078125 C 3.175781 -0.859375 3.398438 -0.640625 3.703125 -0.421875 C 4.003906 -0.203125 4.363281 -0.0195312 4.78125 0.125 C 5.320312 0.300781 5.765625 0.328125 6.109375 0.203125 C 6.460938 0.078125 6.703125 -0.164062 6.828125 -0.53125 C 6.953125 -0.90625 6.921875 -1.25 6.734375 -1.5625 C 6.546875 -1.875 6.15625 -2.25 5.5625 -2.6875 C 4.507812 -3.414062 3.765625 -4.109375 3.328125 -4.765625 C 2.898438 -5.429688 2.820312 -6.160156 3.09375 -6.953125 C 3.363281 -7.753906 3.914062 -8.289062 4.75 -8.5625 C 5.582031 -8.832031 6.515625 -8.804688 7.546875 -8.484375 C 8.296875 -8.234375 8.9375 -7.890625 9.46875 -7.453125 C 10.007812 -7.015625 10.425781 -6.53125 10.71875 -6 Z M 10.046875 -4 "/></g></g><g style="fill:#f2f2f2;fill-opacity:1;"><g transform="translate(163.384398, 289.959233)"><path style="stroke:none" d="M 11.25 -8.328125 L 10.734375 -5.625 L 9.1875 -5.921875 L 9.3125 -7.09375 L 7.453125 -7.4375 L 6.078125 -0.296875 L 7.125 0.109375 L 6.890625 1.328125 L 2.6875 0.515625 L 2.921875 -0.703125 L 4.0625 -0.6875 L 5.4375 -7.828125 L 3.578125 -8.1875 L 3.265625 -7.0625 L 1.71875 -7.375 L 2.234375 -10.078125 Z M 11.25 -8.328125 "/></g></g><g style="fill:#f2f2f2;fill-opacity:1;"><g transform="translate(177.77646, 292.42461)"><path style="stroke:none" d="M 0.765625 -9.03125 L 0.8125 -10.28125 L 5.09375 -10.109375 L 5.046875 -8.859375 L 3.921875 -8.703125 L 3.8125 -5.734375 L 8.015625 -5.546875 L 8.125 -8.515625 L 7.03125 -8.765625 L 7.078125 -10.015625 L 8.1875 -9.96875 L 10.234375 -9.890625 L 11.34375 -9.84375 L 11.296875 -8.59375 L 10.171875 -8.4375 L 9.875 -1.046875 L 10.96875 -0.78125 L 10.921875 0.453125 L 6.65625 0.28125 L 6.703125 -0.953125 L 7.828125 -1.125 L 7.9375 -3.953125 L 3.734375 -4.140625 L 3.625 -1.3125 L 4.71875 -1.046875 L 4.671875 0.1875 L 0.390625 0.015625 L 0.4375 -1.21875 L 1.5625 -1.390625 L 1.859375 -8.78125 Z M 0.765625 -9.03125 "/></g></g><g style="fill:#f2f2f2;fill-opacity:1;"><g transform="translate(193.941797, 292.663457)"><path style="stroke:none" d="M 6.546875 -5.234375 L 3.078125 -4.875 L 3.375 -1.953125 L 6.6875 -2.296875 L 6.65625 -3.53125 L 8.203125 -3.6875 L 8.5 -0.890625 L 0.390625 -0.046875 L 0.265625 -1.28125 L 1.328125 -1.59375 L 0.5625 -8.953125 L -0.5625 -9.0625 L -0.6875 -10.296875 L 0.40625 -10.40625 L 7.40625 -11.140625 L 7.703125 -8.328125 L 6.140625 -8.171875 L 5.90625 -9.390625 L 2.625 -9.046875 L 2.90625 -6.46875 L 6.375 -6.828125 Z M 6.546875 -5.234375 "/></g></g><g style="fill:#f2f2f2;fill-opacity:1;"><g transform="translate(207.884884, 290.87535)"><path style="stroke:none" d="M 6.703125 -12.296875 L 7.359375 -9.625 L 5.828125 -9.25 L 5.453125 -10.34375 L 3.625 -9.890625 L 5.390625 -2.828125 L 6.515625 -2.890625 L 6.8125 -1.6875 L 2.65625 -0.65625 L 2.359375 -1.859375 L 3.390625 -2.328125 L 1.625 -9.390625 L -0.21875 -8.9375 L -0.03125 -7.796875 L -1.5625 -7.40625 L -2.21875 -10.078125 Z M 6.703125 -12.296875 "/></g></g><g style="fill:#f2f2f2;fill-opacity:1;"><g transform="translate(221.785715, 286.996121)"><path style="stroke:none" d="M -2.84375 -8.625 L -3.28125 -9.796875 L 0.71875 -11.296875 L 1.15625 -10.125 L 0.1875 -9.53125 L 2.796875 -2.609375 L 3.921875 -2.796875 L 4.359375 -1.640625 L 0.359375 -0.140625 L -0.078125 -1.296875 L 0.890625 -1.890625 L -1.71875 -8.8125 Z M -2.84375 -8.625 "/></g></g><g style="fill:#f2f2f2;fill-opacity:1;"><g transform="translate(230.8417, 283.427242)"><path style="stroke:none" d="M 4.734375 -10.109375 L 3.375 -9.40625 L 2.546875 -10.546875 C 2.273438 -10.628906 1.972656 -10.648438 1.640625 -10.609375 C 1.304688 -10.578125 0.957031 -10.460938 0.59375 -10.265625 C -0.207031 -9.859375 -0.671875 -9.253906 -0.796875 -8.453125 C -0.921875 -7.648438 -0.75 -6.785156 -0.28125 -5.859375 L -0.109375 -5.546875 C 0.367188 -4.609375 0.96875 -3.957031 1.6875 -3.59375 C 2.414062 -3.238281 3.175781 -3.265625 3.96875 -3.671875 C 4.332031 -3.847656 4.632812 -4.066406 4.875 -4.328125 C 5.113281 -4.585938 5.273438 -4.847656 5.359375 -5.109375 L 4.90625 -6.421875 L 6.265625 -7.125 L 7.203125 -5.328125 C 7.054688 -4.703125 6.757812 -4.113281 6.3125 -3.5625 C 5.875 -3.007812 5.304688 -2.550781 4.609375 -2.1875 C 3.378906 -1.550781 2.148438 -1.457031 0.921875 -1.90625 C -0.304688 -2.363281 -1.265625 -3.265625 -1.953125 -4.609375 L -2.109375 -4.90625 C -2.796875 -6.226562 -2.96875 -7.519531 -2.625 -8.78125 C -2.28125 -10.039062 -1.488281 -10.988281 -0.25 -11.625 C 0.445312 -11.988281 1.148438 -12.191406 1.859375 -12.234375 C 2.566406 -12.273438 3.210938 -12.175781 3.796875 -11.9375 Z M 4.734375 -10.109375 "/></g></g><g style="fill:#f2f2f2;fill-opacity:1;"><g transform="translate(243.276543, 276.635407)"><path style="stroke:none" d="M 2.734375 -10.46875 L 1.453125 -9.578125 L 0.421875 -10.59375 C 0.203125 -10.582031 -0.0664062 -10.507812 -0.390625 -10.375 C -0.722656 -10.25 -1.046875 -10.078125 -1.359375 -9.859375 C -1.828125 -9.535156 -2.117188 -9.1875 -2.234375 -8.8125 C -2.359375 -8.4375 -2.3125 -8.09375 -2.09375 -7.78125 C -1.882812 -7.5 -1.582031 -7.351562 -1.1875 -7.34375 C -0.800781 -7.34375 -0.210938 -7.472656 0.578125 -7.734375 C 1.691406 -8.117188 2.632812 -8.265625 3.40625 -8.171875 C 4.1875 -8.085938 4.820312 -7.703125 5.3125 -7.015625 C 5.820312 -6.285156 5.9375 -5.507812 5.65625 -4.6875 C 5.375 -3.875 4.765625 -3.140625 3.828125 -2.484375 C 3.160156 -2.023438 2.476562 -1.710938 1.78125 -1.546875 C 1.09375 -1.378906 0.441406 -1.359375 -0.171875 -1.484375 L -1.40625 -3.25 L -0.09375 -4.171875 L 0.9375 -3.09375 C 1.195312 -3.070312 1.503906 -3.117188 1.859375 -3.234375 C 2.210938 -3.347656 2.566406 -3.53125 2.921875 -3.78125 C 3.390625 -4.113281 3.675781 -4.457031 3.78125 -4.8125 C 3.894531 -5.164062 3.835938 -5.5 3.609375 -5.8125 C 3.390625 -6.132812 3.09375 -6.3125 2.71875 -6.34375 C 2.351562 -6.382812 1.820312 -6.296875 1.125 -6.078125 C -0.0820312 -5.660156 -1.078125 -5.46875 -1.859375 -5.5 C -2.648438 -5.539062 -3.289062 -5.90625 -3.78125 -6.59375 C -4.257812 -7.289062 -4.359375 -8.054688 -4.078125 -8.890625 C -3.796875 -9.734375 -3.222656 -10.46875 -2.359375 -11.09375 C -1.710938 -11.550781 -1.050781 -11.867188 -0.375 -12.046875 C 0.289062 -12.222656 0.921875 -12.273438 1.515625 -12.203125 Z M 2.734375 -10.46875 "/></g></g><g clip-rule="nonzero" clip-path="url(#14ae64d2e3)"><path style=" stroke:none;fill-rule:evenodd;fill:#4d4d4d;fill-opacity:1;" d="M 192.476562 204.746094 C 191.609375 207.960938 188.644531 218.335938 183.828125 235.75 C 183.582031 236.617188 183.335938 237.480469 183.210938 238.347656 C 182.964844 239.953125 182.59375 241.929688 183.085938 243.410156 C 183.582031 245.015625 185.929688 245.511719 187.410156 245.632812 C 199.640625 247.117188 211.496094 244.398438 219.527344 234.761719 C 222.246094 231.550781 224.714844 227.847656 226.816406 223.523438 C 229.53125 218.335938 231.753906 213.023438 233.484375 207.710938 C 233.609375 207.339844 233.855469 207.21875 234.226562 207.21875 L 235.460938 207.21875 C 235.832031 207.21875 235.957031 207.339844 235.832031 207.710938 L 224.589844 248.226562 C 224.46875 248.351562 224.34375 248.472656 224.21875 248.472656 L 154.308594 248.472656 C 154.058594 248.472656 153.9375 248.351562 154.058594 248.105469 L 154.554688 246.375 C 154.554688 246.128906 154.675781 246.003906 154.925781 246.003906 C 158.878906 245.878906 162.707031 245.632812 166.042969 244.398438 C 167.648438 243.78125 169.007812 242.792969 169.996094 241.1875 C 171.351562 238.964844 172.339844 236.617188 173.082031 233.777344 C 175.800781 224.265625 180.246094 208.328125 186.421875 186.097656 C 186.421875 185.847656 186.421875 185.726562 186.421875 185.476562 L 184.695312 180.167969 C 184.445312 179.796875 184.324219 179.796875 184.199219 180.167969 L 168.757812 235.628906 C 168.757812 235.875 168.511719 236 168.386719 236 C 167.648438 236.121094 167.03125 236.121094 166.289062 236 C 166.042969 236 166.042969 235.875 165.917969 235.75 C 159.371094 215.988281 151.835938 193.507812 143.3125 168.433594 C 142.941406 167.074219 142.078125 165.589844 140.84375 163.863281 C 139.855469 162.378906 138.371094 161.390625 136.394531 160.652344 C 134.296875 159.910156 131.703125 159.539062 128.738281 159.539062 C 128.613281 159.539062 128.492188 159.414062 128.492188 159.292969 L 128.492188 157.316406 C 128.492188 157.191406 128.613281 157.066406 128.738281 157.066406 L 161.71875 157.066406 C 161.964844 157.066406 161.964844 157.191406 161.964844 157.316406 L 161.964844 159.292969 C 161.964844 159.414062 161.84375 159.539062 161.71875 159.539062 C 160.605469 159.414062 159.246094 159.539062 157.890625 159.785156 C 155.542969 160.15625 153.320312 161.144531 153.566406 163.738281 C 153.566406 164.601562 153.8125 165.839844 154.308594 167.566406 C 154.554688 168.679688 154.925781 169.914062 155.417969 171.273438 C 163.570312 195.484375 168.636719 211.046875 170.984375 217.839844 C 170.984375 217.964844 171.105469 217.964844 171.105469 217.839844 C 171.230469 217.839844 171.230469 217.71875 171.230469 217.59375 C 173.207031 210.429688 177.035156 196.84375 182.71875 176.832031 C 182.964844 176.214844 182.839844 175.71875 182.71875 175.101562 C 182.46875 174.484375 182.222656 174.238281 181.480469 174.113281 C 179.382812 173.867188 177.28125 173.621094 175.058594 173.621094 C 174.933594 173.621094 174.933594 173.496094 174.933594 173.375 C 174.933594 173.375 174.933594 173.375 174.933594 173.25 L 175.429688 171.398438 C 175.429688 171.148438 175.554688 171.148438 175.800781 171.148438 L 180.988281 171.148438 C 180.988281 171.148438 181.113281 171.027344 181.113281 170.902344 C 180.492188 169.296875 179.875 167.691406 179.382812 166.085938 C 178.269531 162.996094 176.542969 160.898438 173.328125 160.28125 C 170.984375 159.785156 168.882812 159.539062 166.90625 159.539062 C 166.78125 159.539062 166.78125 159.414062 166.78125 159.292969 L 166.78125 157.316406 C 166.78125 157.191406 166.78125 157.066406 166.90625 157.066406 L 200.503906 157.066406 C 200.628906 157.066406 200.75 157.066406 200.75 157.191406 L 200.75 159.292969 C 200.75 159.414062 200.628906 159.539062 200.503906 159.539062 C 199.269531 159.539062 197.539062 159.539062 195.5625 159.785156 C 193.464844 160.03125 190.621094 160.28125 190.5 163.121094 C 190.5 163.984375 190.621094 164.851562 190.871094 165.839844 C 191.238281 167.566406 191.734375 169.296875 192.351562 170.902344 C 192.351562 171.027344 192.476562 171.148438 192.597656 171.148438 L 216.5625 171.148438 C 216.808594 171.148438 216.933594 171.273438 216.808594 171.398438 L 216.316406 173.25 C 216.316406 173.496094 216.066406 173.621094 215.945312 173.621094 C 212.238281 173.742188 208.78125 173.992188 205.320312 175.101562 C 203.46875 175.597656 201.988281 176.707031 201 178.3125 C 199.640625 180.289062 198.527344 183.007812 197.664062 186.34375 C 197.664062 186.464844 197.664062 186.714844 197.785156 186.960938 C 199.144531 190.914062 202.480469 200.917969 207.914062 217.101562 C 208.039062 217.46875 208.164062 217.71875 208.285156 217.964844 C 208.410156 218.210938 208.410156 218.210938 208.535156 217.964844 C 209.890625 212.777344 213.226562 200.300781 218.539062 180.414062 C 219.402344 176.832031 219.898438 173.375 219.648438 169.914062 C 219.527344 165.589844 217.425781 162.132812 213.226562 160.652344 C 211.25 159.910156 209.152344 159.539062 206.925781 159.539062 C 206.804688 159.539062 206.679688 159.414062 206.679688 159.292969 L 206.679688 157.316406 C 206.679688 157.191406 206.804688 157.066406 206.925781 157.066406 L 239.785156 157.066406 C 239.785156 157.066406 239.90625 157.066406 239.90625 157.191406 L 239.90625 159.292969 C 239.90625 159.414062 239.785156 159.414062 239.785156 159.414062 C 234.472656 160.03125 229.902344 161.886719 226.9375 166.332031 C 226.195312 167.566406 225.332031 169.050781 224.589844 170.777344 C 223.601562 173.125 222.613281 175.71875 221.875 178.808594 C 220.515625 183.503906 215.328125 202.523438 206.1875 235.875 C 206.1875 236 206.0625 236.121094 205.9375 236.121094 L 203.46875 236.121094 C 203.34375 236.121094 203.222656 236 203.097656 235.875 L 192.847656 204.746094 C 192.722656 204.378906 192.597656 204.378906 192.476562 204.746094 Z M 192.476562 204.746094 "/></g></g></svg>