<?xml version="1.0" standalone="no"?>
<!DOCTYPE svg PUBLIC "-//W3C//DTD SVG 20010904//EN"
 "http://www.w3.org/TR/2001/REC-SVG-20010904/DTD/svg10.dtd">
<svg version="1.0" xmlns="http://www.w3.org/2000/svg"
 width="1280.000000pt" height="856.000000pt" viewBox="0 0 1280.000000 856.000000"
 preserveAspectRatio="xMidYMid meet">
<metadata>
Created by potrace 1.15, written by Peter Selinger 2001-2017
</metadata>
<g transform="translate(0.000000,856.000000) scale(0.100000,-0.100000)"
fill="#a9872a" stroke="none">
<path d="M1782 8547 c-9 -11 -699 -1660 -1619 -3869 l-166 -398 166 -397 c920
-2210 1610 -3859 1619 -3870 8 -11 249 -13 1253 -13 684 0 1250 3 1259 6 9 3
16 17 16 30 0 13 -380 974 -844 2134 l-844 2110 844 2110 c464 1160 844 2121
844 2134 0 13 -7 27 -16 30 -9 3 -575 6 -1259 6 -1004 0 -1245 -2 -1253 -13z"/>
<path d="M6022 8548 c-8 -11 -587 -1395 -1599 -3826 l-184 -443 184 -442 c102
-243 501 -1200 887 -2127 386 -927 707 -1691 712 -1697 8 -10 272 -13 1259
-13 1121 0 1249 2 1263 16 9 8 16 17 16 20 0 2 -379 950 -842 2106 -556 1387
-842 2115 -842 2138 0 23 287 751 842 2138 693 1731 840 2106 832 2122 -11 20
-29 20 -1264 20 -991 0 -1256 -3 -1264 -12z"/>
<path d="M10269 8548 c-9 -7 -138 -308 -288 -668 -150 -360 -547 -1313 -882
-2117 -336 -804 -611 -1470 -611 -1480 -1 -10 273 -677 609 -1483 336 -806
734 -1760 884 -2120 150 -360 277 -661 282 -668 8 -9 268 -12 1265 -10 1141 3
1256 4 1265 19 8 12 -186 505 -838 2138 l-849 2121 849 2121 c652 1633 846
2126 838 2138 -9 15 -124 16 -1260 19 -989 2 -1252 -1 -1264 -10z"/>
</g>
</svg>
